<mxfile host="65bd71144e">
    <diagram id="-AKkLBQdHnMaUkaX-iHN" name="Page-1">
        <mxGraphModel dx="806" dy="563" grid="1" gridSize="10" guides="1" tooltips="1" connect="1" arrows="1" fold="1" page="1" pageScale="1" pageWidth="1100" pageHeight="1700" math="0" shadow="0">
            <root>
                <mxCell id="0"/>
                <mxCell id="1" parent="0"/>
                <mxCell id="2" value="setUser(user)" style="shape=manualInput;whiteSpace=wrap;html=1;" parent="1" vertex="1">
                    <mxGeometry x="320" y="20" width="120" height="100" as="geometry"/>
                </mxCell>
                <mxCell id="3" value="useEffect" style="rounded=0;whiteSpace=wrap;html=1;fillColor=#e51400;fontColor=#ffffff;strokeColor=#B20000;" parent="1" vertex="1">
                    <mxGeometry x="320" y="90" width="120" height="30" as="geometry"/>
                </mxCell>
                <mxCell id="5" value="&lt;b&gt;UserContext&lt;/b&gt;&lt;br&gt;&lt;br&gt;currentUser&lt;br&gt;createCurrentUser" style="shape=hexagon;perimeter=hexagonPerimeter2;whiteSpace=wrap;html=1;fixedSize=1;fillColor=#CCFFFF;strokeColor=#6c8ebf;" parent="1" vertex="1">
                    <mxGeometry x="300" y="170" width="160" height="100" as="geometry"/>
                </mxCell>
                <mxCell id="6" value="createContext" style="text;html=1;strokeColor=none;fillColor=none;align=center;verticalAlign=middle;whiteSpace=wrap;rounded=0;fontStyle=2" parent="1" vertex="1">
                    <mxGeometry x="350" y="140" width="60" height="30" as="geometry"/>
                </mxCell>
                <mxCell id="10" value="&lt;b&gt;value&lt;/b&gt;&lt;br&gt;&lt;br&gt;currentUser&lt;br&gt;createCurrentUser" style="rounded=1;whiteSpace=wrap;html=1;fillColor=#CCFFCC;strokeColor=#82b366;" parent="1" vertex="1">
                    <mxGeometry x="300" y="320" width="160" height="80" as="geometry"/>
                </mxCell>
                <mxCell id="13" value="{ children }" style="shape=trapezoid;perimeter=trapezoidPerimeter;whiteSpace=wrap;html=1;fixedSize=1;fillColor=#FFFFCC;strokeColor=#d6b656;" parent="1" vertex="1">
                    <mxGeometry x="310" y="460" width="140" height="80" as="geometry"/>
                </mxCell>
                <mxCell id="14" value="UserContext.Provider value=" style="text;html=1;strokeColor=none;fillColor=none;align=center;verticalAlign=middle;whiteSpace=wrap;rounded=0;fontStyle=0" parent="1" vertex="1">
                    <mxGeometry x="300" y="430" width="160" height="30" as="geometry"/>
                </mxCell>
                <mxCell id="15" value="props" style="whiteSpace=wrap;html=1;rounded=1;arcSize=50;align=center;verticalAlign=middle;strokeWidth=1;autosize=1;spacing=4;treeFolding=1;treeMoving=1;newEdgeStyle={&quot;edgeStyle&quot;:&quot;entityRelationEdgeStyle&quot;,&quot;startArrow&quot;:&quot;none&quot;,&quot;endArrow&quot;:&quot;none&quot;,&quot;segment&quot;:10,&quot;curved&quot;:1,&quot;sourcePerimeterSpacing&quot;:0,&quot;targetPerimeterSpacing&quot;:0};" parent="1" vertex="1">
                    <mxGeometry x="500" y="460" width="70" height="30" as="geometry"/>
                </mxCell>
                <mxCell id="16" value="" style="edgeStyle=entityRelationEdgeStyle;startArrow=none;endArrow=none;segment=10;curved=1;sourcePerimeterSpacing=0;targetPerimeterSpacing=0;" parent="1" target="15" edge="1">
                    <mxGeometry relative="1" as="geometry">
                        <mxPoint x="420" y="502" as="sourcePoint"/>
                    </mxGeometry>
                </mxCell>
                <mxCell id="19" value="" style="edgeStyle=segmentEdgeStyle;endArrow=classic;html=1;curved=0;rounded=0;endSize=8;startSize=8;exitX=0;exitY=0.25;exitDx=0;exitDy=0;entryX=0;entryY=0.5;entryDx=0;entryDy=0;" parent="1" source="5" target="14" edge="1">
                    <mxGeometry width="50" height="50" relative="1" as="geometry">
                        <mxPoint x="380" y="340" as="sourcePoint"/>
                        <mxPoint x="430" y="290" as="targetPoint"/>
                        <Array as="points">
                            <mxPoint x="180" y="198"/>
                            <mxPoint x="180" y="445"/>
                        </Array>
                    </mxGeometry>
                </mxCell>
                <mxCell id="23" value="" style="edgeStyle=segmentEdgeStyle;endArrow=classic;html=1;curved=0;rounded=0;endSize=8;startSize=8;exitX=1;exitY=0.25;exitDx=0;exitDy=0;" parent="1" source="10" edge="1">
                    <mxGeometry width="50" height="50" relative="1" as="geometry">
                        <mxPoint x="380" y="340" as="sourcePoint"/>
                        <mxPoint x="430" y="430" as="targetPoint"/>
                        <Array as="points">
                            <mxPoint x="600" y="340"/>
                            <mxPoint x="600" y="410"/>
                            <mxPoint x="430" y="410"/>
                        </Array>
                    </mxGeometry>
                </mxCell>
                <mxCell id="24" value="" style="edgeStyle=segmentEdgeStyle;endArrow=classic;html=1;curved=0;rounded=0;endSize=8;startSize=8;entryX=1;entryY=0.5;entryDx=0;entryDy=0;" edge="1" parent="1" source="2" target="5">
                    <mxGeometry width="50" height="50" relative="1" as="geometry">
                        <mxPoint x="580" y="170" as="sourcePoint"/>
                        <mxPoint x="630" y="120" as="targetPoint"/>
                        <Array as="points">
                            <mxPoint x="600" y="70"/>
                            <mxPoint x="600" y="220"/>
                        </Array>
                    </mxGeometry>
                </mxCell>
            </root>
        </mxGraphModel>
    </diagram>
</mxfile>